# xmcd CD database file
#
# Track frame offsets:
#	150
#	11335
#	21984
#	40951
#	53339
#	68544
#	90196
#	104619
#	128307
#	140807
#	157220
#	174347
#	203075
#	216496
#	228194
#	246047
#	266925
#	279240
#	311773
#	330740
#	346714
#
# Disc length: 4686 seconds
#
# Revision: 2
# Processed by: cddbd v1.5.1PL2 Copyright (c) Steve Scherf et al.
# Submitted via: CDex 1.51
#
DISCID=21124c15
DTITLE=Easy Rider - Ridin' Easy Plus Koncert '88
DYEAR=1999
DGENRE=Blues
TTITLE0=Boogie On My Mind
TTITLE1=Love To You
TTITLE2=Carefull Touch
TTITLE3=It's Up To You
TTITLE4=Love Will Bring It Back
TTITLE5=Out Of Gauge
TTITLE6=A Scene From The Movie
TTITLE7=Hopefull
TTITLE8=Ridin' Easy
TTITLE9=It's Loud Around
TTITLE10=We Know
TTITLE11=Lazy Blues (live)
TTITLE12=It's Up To You (live)
TTITLE13=Boogie On My Mind (live)
TTITLE14=Carefull Touch (live)
TTITLE15=Chootchie Cootchie Man (live)
TTITLE16=Ridin' Easy (live)
TTITLE17=All I Neeed Is Love (live)
TTITLE18=Love To You (live)
TTITLE19=McLeod (live)
TTITLE20=Looking For Somebody (live)
EXTD=YEAR: 1999
EXTT0=
EXTT1=
EXTT2=
EXTT3=
EXTT4=
EXTT5=
EXTT6=
EXTT7=
EXTT8=
EXTT9=
EXTT10=
EXTT11=
EXTT12=
EXTT13=
EXTT14=
EXTT15=
EXTT16=
EXTT17=
EXTT18=
EXTT19=
EXTT20=
PLAYORDER=
